<?xml version="1.0" encoding="UTF-8"?>
<svg width="18px" height="18px" viewBox="0 0 18 18" version="1.1" xmlns="http://www.w3.org/2000/svg">
    <g stroke="none" stroke-width="1" fill="none" fill-rule="evenodd">
        <path
            d="M17.64,9.20454545 C17.64,4.2 13.44,0 8.44,0 C3.44,0 -0.76,4.2 -0.76,9.20454545 C-0.76,13.8 2.84,17.6 7.24,18.4 L7.24,12.2 L4.84,12.2 L4.84,9.20454545 L7.24,9.20454545 L7.24,6.8 C7.24,4.4 8.64,3.2 10.84,3.2 C11.84,3.2 12.84,3.4 12.84,3.4 L12.84,5.8 L11.84,5.8 C10.84,5.8 10.44,6.4 10.44,7.2 L10.44,9.20454545 L12.84,9.20454545 L12.44,12.2 L10.44,12.2 L10.44,18.4 C14.84,17.6 17.64,13.8 17.64,9.20454545"
            fill="#1877F2"></path>
    </g>
</svg>